<?xml version="1.0" encoding="utf-8"?>
<!-- Generator: Adobe Illustrator 24.1.3, SVG Export Plug-In . SVG Version: 6.00 Build 0)  -->
<svg version="1.1" id="Layer_1" xmlns="http://www.w3.org/2000/svg" xmlns:xlink="http://www.w3.org/1999/xlink" x="0px" y="0px"
	 viewBox="0 0 841.9 287.9" style="enable-background:new 0 0 841.9 287.9;" xml:space="preserve">
<style type="text/css">
	.st0{fill:none;stroke:#EAEAEA;stroke-width:14;stroke-linecap:square;stroke-linejoin:round;stroke-miterlimit:10;}
	.st1{fill:none;stroke:#EAEAEA;stroke-width:14;stroke-linecap:square;stroke-linejoin:bevel;stroke-miterlimit:10;}
	.st2{enable-background:new    ;}
	.st3{fill:#EAEAEA;}
</style>
<g>
	<path class="st0" d="M363.9,219L363.9,219c-5.8,0-10.5-4.7-10.5-10.5V103.1c0-5.8,4.7-10.5,10.5-10.5h38.4c2.4,0,4.7,0.8,6.5,2.3
		c10.5,8.4,46.2,38.3,46.2,57.2v56.4c0,5.8-4.7,10.5-10.5,10.5H440"/>
	<path class="st0" d="M263,220.6h80.2c5.1,0,9.3-4.2,9.3-9.3v-151c0-5.1-4.2-9.3-9.3-9.3H182.8c-5.1,0-9.3,4.2-9.3,9.3v151
		c0,5.1,4.2,9.3,9.3,9.3h0.3h3"/>
	<circle class="st0" cx="224.7" cy="225" r="26"/>
	<circle class="st0" cx="402.2" cy="225" r="26"/>
	<line class="st1" x1="82.1" y1="68.6" x2="161.7" y2="68.6"/>
	<line class="st1" x1="127.4" y1="134.2" x2="33.1" y2="134.2"/>
	<line class="st1" x1="159.2" y1="201.5" x2="80.2" y2="201.5"/>
</g>
<g class="st2">
	<path class="st3" d="M525.6,129.1v18.2h30v17.3h-30v36.9h-20.2v-90.8h51.9v18.4H525.6z"/>
	<path class="st3" d="M612.6,134.4v18.8c-1.5-0.3-2.9-0.4-4.6-0.4c-13.2,0-20.7,8.8-20.7,21.3v27.4h-19.8V135h19.8v18
		c2.2-10.7,8.6-19.3,20.6-19.3C609.4,133.7,610.9,133.9,612.6,134.4z"/>
	<path class="st3" d="M682.6,175.9h-47.3c2.7,7.2,9.3,10.7,18.2,10.7c5.9,0,11.1-1.4,16-5.1l8.9,9.3c-5.5,6.9-15,11.9-27.1,11.9
		c-18.4,0-35-12.5-35-34.4c0-22.5,16.7-34.6,33.9-34.6C667,133.7,686.9,145.5,682.6,175.9z M634.9,161.7h30.3
		c-1.4-7.7-8.2-11.4-14.8-11.4S637.1,153.8,634.9,161.7z"/>
	<path class="st3" d="M730.8,183.7v15.1c-2.6,2.6-8.2,3.5-12.8,3.5c-12.3,0-21.2-6-21.2-21.2v-30.3H687V135h9.8v-17h19.8v17h13.9
		v15.7h-13.9v27.1c0,3.3,1.9,6.9,7.9,6.9C726.1,184.8,728.4,184.5,730.8,183.7z"/>
	<path class="st3" d="M802.5,175.9h-47.3c2.7,7.2,9.3,10.7,18.2,10.7c5.9,0,11.1-1.4,16-5.1l8.9,9.3c-5.5,6.9-15,11.9-27.1,11.9
		c-18.4,0-35-12.5-35-34.4c0-22.5,16.7-34.6,33.9-34.6C787,133.7,806.8,145.5,802.5,175.9z M754.9,161.7h30.3
		c-1.4-7.7-8.2-11.4-14.8-11.4S757,153.8,754.9,161.7z"/>
</g>
</svg>
