<?xml version="1.0" encoding="utf-8"?>
<!-- Generator: Adobe Illustrator 24.1.3, SVG Export Plug-In . SVG Version: 6.00 Build 0)  -->
<svg version="1.1" id="Layer_2" xmlns="http://www.w3.org/2000/svg" xmlns:xlink="http://www.w3.org/1999/xlink" x="0px" y="0px"
	 viewBox="0 0 163 40" style="enable-background:new 0 0 163 40;" xml:space="preserve">
<style type="text/css">
	.st0{font-family:'Cysan-Regular';}
	.st1{font-size:17.6107px;}
</style>
<path d="M20,1.7C9.9,1.7,1.8,9.8,1.8,19.9C1.8,30,9.9,38.2,20,38.2c10.1,0,18.2-8.2,18.2-18.2C38.2,9.8,30.1,1.7,20,1.7z M20,36
	c-8.9,0-16.1-7.2-16.1-16.1C3.9,11,11.1,3.8,20,3.8c8.9,0,16.1,7.2,16.1,16.1C36.1,28.8,28.9,36,20,36z"/>
<path d="M34.5,19.9c0,3.4-1.2,6.5-3.1,9c-0.7,0.9-1.5,1.7-2.4,2.4c-0.3,0.3-0.6,0.5-1,0.7v-4.3c0.3-0.3,0.6-0.7,0.9-1.1
	c1.4-1.8,2.2-4.1,2.2-6.6c0-2.3-0.7-4.5-2-6.3l-3.1,3V33c-1.1,0.5-2.2,0.9-3.3,1.1v-8.9L20,22.5l-2.4-2.3l-0.4-0.4v14.3
	c-1.2-0.2-2.3-0.6-3.3-1.1V16.6l-3-2.9c-1.2,1.8-1.9,3.9-1.9,6.3c0,2.5,0.8,4.7,2.2,6.6c0.3,0.4,0.6,0.7,0.9,1.1v4.4
	c-0.3-0.2-0.6-0.4-0.9-0.7c-0.9-0.7-1.7-1.5-2.4-2.4c-1.9-2.5-3.1-5.6-3.1-8.9c0-3.2,1.1-6.2,2.8-8.6c0.7-0.9,1.4-1.7,2.3-2.4
	l1.2,1.2l1.9,1.8V6.8C14.9,6.3,16,6,17.2,5.7v9.4l2.8,2.7l2.4,2.3l0.4,0.4V5.7c1.2,0.2,2.3,0.6,3.3,1.1v5.1l1.9-1.8l1.3-1.2
	c0.9,0.7,1.6,1.5,2.3,2.4C33.4,13.7,34.5,16.7,34.5,19.9z"/>
<text transform="matrix(1 0 0 1 53.3638 26.5656)" class="st0 st1">Muniz Neto</text>
</svg>
