<?xml version="1.0" encoding="utf-8"?>
<!-- Generator: Adobe Illustrator 24.1.3, SVG Export Plug-In . SVG Version: 6.00 Build 0)  -->
<svg version="1.1" id="black" xmlns="http://www.w3.org/2000/svg" xmlns:xlink="http://www.w3.org/1999/xlink" x="0px" y="0px"
	 viewBox="0 0 163 40" style="enable-background:new 0 0 163 40;" xml:space="preserve">
<style type="text/css">
	.st0{fill:none;stroke:#231F20;stroke-width:4;stroke-linecap:square;stroke-linejoin:round;stroke-miterlimit:10;}
	.st1{fill:none;stroke:#231F20;stroke-width:4;stroke-linecap:square;stroke-linejoin:bevel;stroke-miterlimit:10;}
	.st2{fill:#231F20;}
	.st3{font-family:'VisbyCF-Bold';}
	.st4{font-size:29.038px;}
</style>
<g>
	<path class="st0" d="M53.1,30.4L53.1,30.4c-0.9,0-1.6-0.7-1.6-1.6V13.1c0-0.9,0.7-1.6,1.6-1.6h5.8c0.4,0,0.7,0.1,1,0.3
		c1.6,1.3,6.9,5.7,6.9,8.6v8.5c0,0.9-0.7,1.6-1.6,1.6h-0.7"/>
	<path class="st0" d="M38,30.7h12c0.8,0,1.4-0.6,1.4-1.4V6.6c0-0.8-0.6-1.4-1.4-1.4H26c-0.8,0-1.4,0.6-1.4,1.4v22.6
		c0,0.8,0.6,1.4,1.4,1.4h0h0.5"/>
	<circle class="st0" cx="32.2" cy="31.3" r="3.9"/>
	<circle class="st0" cx="58.8" cy="31.3" r="3.9"/>
	<line class="st1" x1="10.9" y1="7.9" x2="22.8" y2="7.9"/>
	<line class="st1" x1="17.6" y1="17.7" x2="3.5" y2="17.7"/>
	<line class="st1" x1="22.4" y1="27.8" x2="10.6" y2="27.8"/>
</g>
<text transform="matrix(1 0 0 1 92.3883 31.3391)" class="st2 st3 st4">Frete</text>
</svg>
